<?xml version="1.0" encoding="UTF-8"?>
<svg xmlns="http://www.w3.org/2000/svg" xmlns:xlink="http://www.w3.org/1999/xlink" width="123px" height="150px" viewBox="0 0 172 208" version="1.1">
<defs>
<clipPath id="clip1">
  <path d="M 0.5625 0.375 L 171.4375 0.375 L 171.4375 207.625 L 0.5625 207.625 Z M 0.5625 0.375 "/>
</clipPath>
<linearGradient id="linear0" gradientUnits="userSpaceOnUse" x1="-112.54" y1="694.49" x2="-111.54" y2="694.49" gradientTransform="matrix(0,207.252632,208.053238,0,-144402.641319,23325.334196)">
<stop offset="0" style="stop-color:rgb(74.901961%,90.588235%,98.431373%);stop-opacity:1;"/>
<stop offset="0.26" style="stop-color:rgb(74.901961%,90.588235%,98.431373%);stop-opacity:1;"/>
<stop offset="0.74" style="stop-color:rgb(79.607843%,90.588235%,81.568627%);stop-opacity:1;"/>
<stop offset="1" style="stop-color:rgb(85.490196%,94.509804%,99.215686%);stop-opacity:1;"/>
<stop offset="1" style="stop-color:rgb(84.313725%,94.117647%,98.823529%);stop-opacity:1;"/>
</linearGradient>
</defs>
<g id="surface1">
<g clip-path="url(#clip1)" clip-rule="nonzero">
<path style=" stroke:none;fill-rule:nonzero;fill:url(#linear0);" d="M 0.5625 0.375 L 171.4375 0.375 L 171.4375 207.625 L 0.5625 207.625 Z M 0.5625 0.375 "/>
</g>
<path style="fill:none;stroke-width:1;stroke-linecap:butt;stroke-linejoin:miter;stroke:rgb(13.72549%,12.156863%,12.54902%);stroke-opacity:1;stroke-miterlimit:10;" d="M 0.502065 0.501761 L 228.257935 0.501761 L 228.257935 277.808239 L 0.502065 277.808239 Z M 0.502065 0.501761 " transform="matrix(0.750255,0,0,0.747368,0.185823,0)"/>
<path style=" stroke:none;fill-rule:nonzero;fill:rgb(13.72549%,12.156863%,12.54902%);fill-opacity:1;" d="M 30.886719 48.601562 C 30.886719 48.601562 40.378906 44.992188 40.203125 52.039062 C 40.203125 51.867188 46.078125 55.246094 44.707031 49.855469 C 44.707031 49.804688 43.316406 40.886719 49.710938 41.039062 C 49.539062 41.039062 59.898438 40 69.90625 29.511719 C 70.078125 29.511719 67.320312 37.25 61.96875 40.171875 C 61.96875 40.34375 74.574219 47.054688 80.613281 30.71875 C 80.613281 30.71875 84.238281 36.046875 79.40625 42.929688 C 79.578125 43.101562 89.074219 44.648438 88.902344 35.875 C 88.730469 35.875 91.152344 26.582031 82.511719 25.207031 C 82.339844 25.207031 61.625 -1.097656 36.242188 20.050781 C 36.070312 20.222656 21.238281 32.757812 30.894531 48.601562 "/>
<path style="fill:none;stroke-width:1;stroke-linecap:butt;stroke-linejoin:round;stroke:rgb(13.72549%,12.156863%,12.54902%);stroke-opacity:1;stroke-miterlimit:4;" d="M 232.44061 323.610293 C 232.44061 323.610293 245.092557 318.780845 244.858261 328.209767 C 244.858261 327.979793 252.688931 332.500867 250.861428 325.288055 C 250.861428 325.220109 249.007892 313.287609 257.531034 313.491449 C 257.301946 313.491449 271.109749 312.101154 284.448963 298.067531 C 284.678051 298.067531 281.002218 308.421575 273.869228 312.331128 C 273.869228 312.561101 290.670805 321.540529 298.72015 299.682574 C 298.72015 299.682574 303.55184 306.811759 297.111323 316.02116 C 297.340411 316.251134 309.997565 318.320897 309.768476 306.581785 C 309.539387 306.581785 312.767456 294.147525 301.25054 292.307735 C 301.021451 292.307735 273.41105 257.111304 239.578807 285.408524 C 239.339305 285.638497 219.549161 302.442258 232.44061 323.610293 Z M 232.44061 323.610293 " transform="matrix(0.750255,0,0,0.747368,-143.503031,-193.254429)"/>
<path style=" stroke:none;fill-rule:nonzero;fill:rgb(86.27451%,81.568627%,76.078431%);fill-opacity:1;" d="M 30.886719 48.601562 C 30.886719 48.601562 40.03125 44.476562 40.203125 52.039062 C 40.203125 52.039062 46.078125 55.074219 44.707031 49.855469 C 44.707031 49.855469 42.972656 41.210938 49.710938 41.039062 C 49.710938 41.039062 59.898438 40.34375 69.90625 29.511719 C 69.90625 29.511719 68.355469 36.5625 61.96875 40.171875 C 61.96875 40.171875 74.917969 47.054688 80.613281 30.71875 C 82.808594 34.636719 82.324219 39.5 79.398438 42.914062 C 80.976562 43.453125 82.699219 43.394531 84.238281 42.75 C 84.191406 42.75 82.683594 51.851562 84.238281 55.125 C 84.238281 54.953125 85.960938 71.121094 69.230469 76.621094 C 69.40625 76.792969 51.976562 84.019531 37.8125 62 C 37.636719 62.171875 25.058594 67.332031 30.910156 48.585938 "/>
<path style="fill:none;stroke-width:1;stroke-linecap:butt;stroke-linejoin:round;stroke:rgb(13.72549%,12.156863%,12.54902%);stroke-opacity:1;stroke-miterlimit:4;" d="M 232.44061 323.610293 C 232.44061 323.610293 244.629173 318.090924 244.858261 328.209767 C 244.858261 328.209767 252.688931 332.270893 250.861428 325.288055 C 250.861428 325.288055 248.549714 313.721423 257.531034 313.491449 C 257.531034 313.491449 271.109749 312.561101 284.448963 298.067531 C 284.448963 298.067531 282.381957 307.50168 273.869228 312.331128 C 273.869228 312.331128 291.128982 321.540529 298.72015 299.682574 C 301.646238 304.924929 301.000625 311.432139 297.100909 316.000254 C 299.204361 316.721535 301.500455 316.643135 303.55184 315.780733 C 303.489362 315.780733 301.479628 327.958886 303.55184 332.33884 C 303.55184 332.108866 305.847934 353.742075 283.548227 361.101234 C 283.782523 361.331207 260.550841 371.000556 241.671845 341.537788 C 241.411517 341.788669 224.60994 348.68788 232.44061 323.610293 Z M 232.44061 323.610293 " transform="matrix(0.750255,0,0,0.747368,-143.503031,-193.254429)"/>
<path style="fill:none;stroke-width:1;stroke-linecap:butt;stroke-linejoin:round;stroke:rgb(13.72549%,12.156863%,12.54902%);stroke-opacity:1;stroke-miterlimit:4;" d="M 235.658265 326.829925 C 235.658265 326.829925 243.707611 325.680056 242.327872 335.830259 " transform="matrix(0.750255,0,0,0.747368,-143.503031,-193.254429)"/>
<path style="fill:none;stroke-width:1;stroke-linecap:butt;stroke-linejoin:round;stroke:rgb(13.72549%,12.156863%,12.54902%);stroke-opacity:1;stroke-miterlimit:4;" d="M 271.099336 344.997847 C 271.099336 344.997847 281.220894 362.000222 290.202214 344.997847 " transform="matrix(0.750255,0,0,0.747368,-143.503031,-193.254429)"/>
<path style="fill:none;stroke-width:1;stroke-linecap:butt;stroke-linejoin:round;stroke:rgb(13.72549%,12.156863%,12.54902%);stroke-opacity:1;stroke-miterlimit:4;" d="M 278.919593 337.001034 C 278.919593 337.001034 285.818288 331.241238 290.202214 337.001034 " transform="matrix(0.750255,0,0,0.747368,-143.503031,-193.254429)"/>
<path style=" stroke:none;fill-rule:nonzero;fill:rgb(86.27451%,81.568627%,76.078431%);fill-opacity:1;" d="M 37.789062 62.015625 L 37.789062 72.851562 L 54.707031 81.964844 L 56.808594 77.234375 C 56.808594 77.234375 45.90625 75.261719 37.789062 62.015625 "/>
<path style="fill:none;stroke-width:1;stroke-linecap:butt;stroke-linejoin:round;stroke:rgb(13.72549%,12.156863%,12.54902%);stroke-opacity:1;stroke-miterlimit:4;" d="M 241.640606 341.558695 L 241.640606 356.057492 L 264.190228 368.251325 L 266.991358 361.921822 C 266.991358 361.921822 252.459843 359.282351 241.640606 341.558695 Z M 241.640606 341.558695 " transform="matrix(0.750255,0,0,0.747368,-143.503031,-193.254429)"/>
<path style="fill:none;stroke-width:1;stroke-linecap:butt;stroke-linejoin:round;stroke:rgb(13.72549%,12.156863%,12.54902%);stroke-opacity:1;stroke-miterlimit:4;" d="M 247.852035 305.891864 C 247.852035 305.891864 259.332505 311.411233 272.458249 300.832442 " transform="matrix(0.750255,0,0,0.747368,-143.503031,-193.254429)"/>
<path style="fill:none;stroke-width:1;stroke-linecap:butt;stroke-linejoin:round;stroke:rgb(13.72549%,12.156863%,12.54902%);stroke-opacity:1;stroke-miterlimit:4;" d="M 247.852035 296.457715 C 247.852035 296.457715 257.119716 304.052074 266.991358 298.067531 " transform="matrix(0.750255,0,0,0.747368,-143.503031,-193.254429)"/>
<path style=" stroke:none;fill-rule:nonzero;fill:rgb(78.823529%,79.215686%,80%);fill-opacity:1;" d="M 15.761719 143.152344 C 15.761719 143.152344 13.617188 154.03125 24.320312 155.0625 C 24.492188 155.0625 45.214844 148.179688 45.214844 148.179688 L 51.96875 144.054688 C 51.96875 144.054688 43.128906 150.855469 15.785156 143.152344 "/>
<path style="fill:none;stroke-width:1;stroke-linecap:butt;stroke-linejoin:round;stroke:rgb(13.72549%,12.156863%,12.54902%);stroke-opacity:1;stroke-miterlimit:4;" d="M 212.2808 450.121965 C 212.2808 450.121965 209.422397 464.678256 223.688378 466.058098 C 223.917467 466.058098 251.538281 456.848696 251.538281 456.848696 L 260.540428 451.329327 C 260.540428 451.329327 248.731944 460.428969 212.2808 450.121965 Z M 212.2808 450.121965 " transform="matrix(0.750255,0,0,0.747368,-143.503031,-193.254429)"/>
<path style="fill-rule:nonzero;fill:rgb(78.823529%,79.215686%,80%);fill-opacity:1;stroke-width:1;stroke-linecap:butt;stroke-linejoin:round;stroke:rgb(13.72549%,12.156863%,12.54902%);stroke-opacity:1;stroke-miterlimit:4;" d="M 334.838074 466.058098 C 334.838074 466.058098 323.487768 480.708468 337.909946 487.147732 C 337.748543 487.001385 385.779082 485.621543 385.779082 485.621543 L 374.272579 464.751429 Z M 334.838074 466.058098 " transform="matrix(0.750255,0,0,0.747368,-143.503031,-193.254429)"/>
<path style=" stroke:none;fill-rule:nonzero;fill:rgb(17.254902%,9.411765%,35.294118%);fill-opacity:1;" d="M 84.28125 148.179688 C 84.28125 148.179688 99.078125 136.582031 101.613281 126.507812 C 101.726562 126.433594 100.800781 138.242188 104.613281 140.078125 C 104.492188 139.960938 104.382812 146.523438 103.804688 146.804688 C 103.921875 146.960938 99.894531 154.535156 107.71875 155.027344 C 108.175781 154.964844 137.300781 154.046875 137.300781 154.046875 L 125.296875 109.207031 C 125.296875 109.207031 103.332031 89.910156 93.578125 109.742188 C 93.691406 109.742188 84.320312 148.179688 84.320312 148.179688 "/>
<path style="fill:none;stroke-width:1;stroke-linecap:butt;stroke-linejoin:round;stroke:rgb(13.72549%,12.156863%,12.54902%);stroke-opacity:1;stroke-miterlimit:4;" d="M 303.609113 456.848696 C 303.609113 456.848696 323.331571 441.330698 326.71063 427.851102 C 326.861621 427.751796 325.627665 443.552035 330.70927 446.008572 C 330.547867 445.851772 330.402083 454.632586 329.631512 455.008907 C 329.787709 455.217974 324.419743 465.352497 334.848487 466.011058 C 335.457655 465.927431 374.277785 464.699162 374.277785 464.699162 L 358.278019 404.702158 C 358.278019 404.702158 329.001518 378.882383 316.000731 405.418213 C 316.099656 405.418213 303.609113 456.848696 303.609113 456.848696 Z M 303.609113 456.848696 " transform="matrix(0.750255,0,0,0.747368,-143.503031,-193.254429)"/>
<path style=" stroke:none;fill-rule:nonzero;fill:rgb(17.647059%,26.27451%,37.254902%);fill-opacity:1;" d="M 151.347656 142.636719 C 150.996094 145.296875 143.65625 146.523438 134.96875 145.371094 C 126.28125 144.21875 119.519531 141.125 119.882812 138.464844 C 120.242188 135.804688 127.5625 134.578125 136.257812 135.730469 C 144.953125 136.878906 151.699219 139.972656 151.347656 142.636719 "/>
<path style="fill:none;stroke-width:1;stroke-linecap:butt;stroke-linejoin:round;stroke:rgb(13.72549%,12.156863%,12.54902%);stroke-opacity:1;stroke-miterlimit:4;" d="M 378.488172 446.641963 C 378.490478 434.955203 375.580669 425.478013 371.990593 425.482407 C 368.399832 425.481641 365.488168 434.955134 365.491043 446.641205 C 365.488737 458.327964 368.397861 467.799994 371.988622 467.80076 C 375.579384 467.801527 378.491047 458.328034 378.488172 446.641963 Z M 378.488172 446.641963 " transform="matrix(0.0988366,-0.740854,0.743716,0.0984563,-233.368586,372.13697)"/>
<path style="fill-rule:nonzero;fill:rgb(3.137255%,12.54902%,17.647059%);fill-opacity:1;stroke-width:1;stroke-linecap:butt;stroke-linejoin:round;stroke:rgb(13.72549%,12.156863%,12.54902%);stroke-opacity:1;stroke-miterlimit:4;" d="M 389.611112 459.23206 C 389.611112 459.23206 388.548973 453.707465 392.839181 456.310349 C 392.839181 456.012428 398.972511 461.380224 398.972511 461.380224 L 393.599339 463.998788 Z M 389.611112 459.23206 " transform="matrix(0.750255,0,0,0.747368,-143.503031,-193.254429)"/>
<path style=" stroke:none;fill-rule:nonzero;fill:rgb(3.137255%,12.54902%,17.647059%);fill-opacity:1;" d="M 120.152344 139.683594 C 120.152344 139.683594 118.417969 146.175781 120.835938 156.125 C 120.835938 156.246094 123.59375 161.976562 118.1875 172.179688 C 118.296875 172.066406 112.238281 184.332031 135.585938 187.875 C 135.585938 187.875 170.441406 196.699219 164.917969 181.453125 C 164.800781 181.566406 165.378906 178.703125 155.480469 170.558594 C 155.359375 170.675781 148.570312 168.039062 149.726562 152.785156 C 149.726562 152.558594 151.152344 143.113281 151.152344 143.113281 C 151.152344 143.113281 149.507812 146.851562 134.9375 145.355469 C 134.9375 145.355469 122.933594 143.726562 120.152344 139.667969 "/>
<path style="fill:none;stroke-width:1;stroke-linecap:butt;stroke-linejoin:round;stroke:rgb(13.72549%,12.156863%,12.54902%);stroke-opacity:1;stroke-miterlimit:4;" d="M 351.420976 445.480678 C 351.420976 445.480678 349.109262 454.167412 352.332124 467.479754 C 352.332124 467.641781 356.007957 475.309313 348.802075 488.961389 C 348.947859 488.809815 340.87248 505.221575 371.992104 509.962169 C 371.992104 509.962169 418.450261 521.769229 411.088182 501.369515 C 410.931985 501.521089 411.702556 497.689936 398.509127 486.792318 C 398.347724 486.949119 389.298718 483.421113 390.839861 463.010946 C 390.839861 462.707799 392.740256 450.069699 392.740256 450.069699 C 392.740256 450.069699 390.548293 455.071627 371.127815 453.06981 C 371.127815 453.090717 355.117635 450.911193 351.420976 445.480678 Z M 351.420976 445.480678 " transform="matrix(0.750255,0,0,0.747368,-143.503031,-193.254429)"/>
<path style="fill:none;stroke-width:1;stroke-linecap:butt;stroke-linejoin:round;stroke:rgb(13.72549%,12.156863%,12.54902%);stroke-opacity:1;stroke-miterlimit:4;" d="M 392.151914 454.052425 C 392.151914 454.052425 382.8582 453.859038 384.237939 460.460329 C 384.092156 460.298302 383.930752 481.168416 385.768669 483.4577 C 385.768669 483.4577 384.701323 494.198517 394.208506 494.658465 C 394.208506 494.658465 401.997524 495.89196 401.560173 489.442243 L 398.509127 486.828905 C 398.509127 486.828905 386.862047 483.687673 392.151914 454.052425 Z M 392.151914 454.052425 " transform="matrix(0.750255,0,0,0.747368,-143.503031,-193.254429)"/>
<path style=" stroke:none;fill-rule:nonzero;fill:rgb(13.72549%,12.156863%,12.54902%);fill-opacity:1;" d="M 117.585938 174.496094 C 117.585938 174.496094 110.269531 186.765625 134.445312 192.269531 C 134.445312 192.15625 170.277344 203.476562 165.542969 183.382812 C 165.460938 183.433594 170.277344 195.996094 135.097656 187.828125 C 135.59375 187.902344 116.835938 186.078125 117.585938 174.496094 "/>
<path style="fill:none;stroke-width:1;stroke-linecap:butt;stroke-linejoin:round;stroke:rgb(13.72549%,12.156863%,12.54902%);stroke-opacity:1;stroke-miterlimit:4;" d="M 348.000264 492.060807 C 348.000264 492.060807 338.248373 508.477794 370.471788 515.842179 C 370.471788 515.690605 418.231586 530.83751 411.921232 503.951493 C 411.811894 504.01944 418.231586 520.828427 371.341284 509.899449 C 372.002517 509.998756 347.000604 507.557899 348.000264 492.060807 Z M 348.000264 492.060807 " transform="matrix(0.750255,0,0,0.747368,-143.503031,-193.254429)"/>
<path style=" stroke:none;fill-rule:nonzero;fill:rgb(17.647059%,26.27451%,37.254902%);fill-opacity:1;" d="M 110.015625 76.546875 C 112.703125 76.386719 115.265625 83.332031 115.816406 92.046875 C 116.363281 100.761719 114.554688 107.957031 111.867188 108.113281 C 109.183594 108.269531 106.578125 101.328125 106.070312 92.613281 C 105.558594 83.898438 107.320312 76.703125 110.015625 76.546875 "/>
<path style="fill:none;stroke-width:1;stroke-linecap:butt;stroke-linejoin:round;stroke:rgb(13.72549%,12.156863%,12.54902%);stroke-opacity:1;stroke-miterlimit:4;" d="M 337.909946 361.001927 C 341.492061 360.787633 344.907566 370.080662 345.641692 381.741374 C 346.37061 393.402086 343.959972 403.029622 340.377857 403.238689 C 336.800948 403.447756 333.328171 394.159954 332.651318 382.499242 C 331.969258 370.83853 334.317418 361.231901 337.909946 361.001927 Z M 337.909946 361.001927 " transform="matrix(0.750255,0,0,0.747368,-143.503031,-193.254429)"/>
<path style="fill-rule:nonzero;fill:rgb(3.137255%,12.54902%,17.647059%);fill-opacity:1;stroke-width:1;stroke-linecap:butt;stroke-linejoin:round;stroke:rgb(13.72549%,12.156863%,12.54902%);stroke-opacity:1;stroke-miterlimit:4;" d="M 348.161668 362.449716 C 348.161668 362.449716 342.939486 364.540386 344.688891 359.841605 C 344.392117 359.899098 348.500094 352.83786 348.500094 352.83786 L 352.082209 357.620268 Z M 348.161668 362.449716 " transform="matrix(0.750255,0,0,0.747368,-143.503031,-193.254429)"/>
<path style=" stroke:none;fill-rule:nonzero;fill:rgb(3.137255%,12.54902%,17.647059%);fill-opacity:1;" d="M 113.007812 107.597656 C 113.007812 107.597656 119.761719 108.070312 129.109375 103.816406 C 129.222656 103.816406 134.363281 100.003906 145.433594 103.359375 C 145.300781 103.269531 158.542969 106.882812 157.621094 83.367188 C 157.621094 83.367188 159.71875 47.601562 145.734375 55.894531 C 145.871094 55.984375 142.9375 55.964844 136.785156 67.1875 C 136.917969 67.277344 135.605469 74.421875 120.363281 76.15625 C 120.136719 76.203125 110.554688 76.597656 110.554688 76.597656 C 110.554688 76.597656 114.515625 77.503906 115.808594 92.03125 C 115.808594 92.03125 116.476562 104.085938 113 107.570312 "/>
<path style="fill:none;stroke-width:1;stroke-linecap:butt;stroke-linejoin:round;stroke:rgb(13.72549%,12.156863%,12.54902%);stroke-opacity:1;stroke-miterlimit:4;" d="M 341.898173 402.548768 C 341.898173 402.548768 350.90032 403.181196 363.359624 397.489346 C 363.510614 397.489346 370.36245 392.388111 385.117848 396.877825 C 384.940825 396.757612 402.591072 401.592286 401.362323 370.127702 C 401.362323 370.127702 404.158247 322.272264 385.518754 333.368495 C 385.700983 333.488709 381.790855 333.462575 373.590519 348.478813 C 373.767542 348.599027 372.018137 358.158616 351.70213 360.479259 C 351.40015 360.541979 338.628452 361.069874 338.628452 361.069874 C 338.628452 361.069874 343.907906 362.282462 345.631278 381.720467 C 345.641692 381.762281 346.532014 397.8918 341.898173 402.548768 Z M 341.898173 402.548768 " transform="matrix(0.750255,0,0,0.747368,-143.503031,-193.254429)"/>
<path style="fill:none;stroke-width:1;stroke-linecap:butt;stroke-linejoin:round;stroke:rgb(13.72549%,12.156863%,12.54902%);stroke-opacity:1;stroke-miterlimit:4;" d="M 342.601059 360.939207 C 342.601059 360.939207 344.168234 370.101568 350.390077 367.488231 C 350.270326 367.671164 370.778975 363.871372 372.689784 361.629128 C 372.689784 361.629128 383.441335 360.630833 382.087629 351.217591 C 382.087629 351.217591 381.822094 343.340991 375.579426 344.987394 C 375.751242 344.71038 373.580106 348.478813 373.580106 348.478813 C 373.580106 348.478813 372.71061 360.510619 342.601059 360.939207 Z M 342.601059 360.939207 " transform="matrix(0.750255,0,0,0.747368,-143.503031,-193.254429)"/>
<path style=" stroke:none;fill-rule:nonzero;fill:rgb(13.72549%,12.156863%,12.54902%);fill-opacity:1;" d="M 147.8125 103.539062 C 147.8125 103.539062 161.316406 108.367188 162.136719 83.683594 C 162.023438 83.683594 166.417969 46.507812 147.484375 54.953125 C 147.550781 55.027344 159.03125 47.9375 157.640625 83.890625 C 157.640625 83.367188 159.367188 102.074219 147.8125 103.539062 "/>
<path style="fill:none;stroke-width:1;stroke-linecap:butt;stroke-linejoin:round;stroke:rgb(13.72549%,12.156863%,12.54902%);stroke-opacity:1;stroke-miterlimit:4;" d="M 388.288645 397.118252 C 388.288645 397.118252 406.287731 403.578423 407.38111 370.551062 C 407.230119 370.551062 413.087502 320.808795 387.851294 332.108866 C 387.939805 332.208173 403.241892 322.721758 401.388356 370.828076 C 401.362323 370.127702 403.689657 395.158249 388.288645 397.118252 Z M 388.288645 397.118252 " transform="matrix(0.750255,0,0,0.747368,-143.503031,-193.254429)"/>
<path style="fill-rule:nonzero;fill:rgb(17.254902%,9.411765%,35.294118%);fill-opacity:1;stroke-width:1;stroke-linecap:butt;stroke-linejoin:round;stroke:rgb(13.72549%,12.156863%,12.54902%);stroke-opacity:1;stroke-miterlimit:4;" d="M 223.688378 466.058098 C 223.688378 466.058098 223.61028 494.820491 265.960459 492.520754 C 265.960459 492.677555 300.318565 489.94923 307.378664 455.029813 C 307.691057 454.930506 313.819182 420.26197 313.819182 420.26197 C 313.819182 420.26197 336.681197 405.538426 340.211247 406.918268 C 340.211247 406.609894 345.272026 407.67091 343.590306 399.538203 C 343.428902 399.710683 335.832528 366.719909 335.832528 366.719909 C 335.832528 366.719909 331.459015 358.59243 321.337458 366.719909 C 321.488448 366.871483 290.202214 379.399823 290.202214 379.399823 L 275.202108 412.207664 L 260.467536 451.329327 L 251.470596 456.848696 Z M 223.688378 466.058098 " transform="matrix(0.750255,0,0,0.747368,-143.503031,-193.254429)"/>
<path style="fill-rule:nonzero;fill:rgb(35.686275%,16.470588%,5.098039%);fill-opacity:1;stroke-width:1;stroke-linecap:butt;stroke-linejoin:round;stroke:rgb(13.72549%,12.156863%,12.54902%);stroke-opacity:1;stroke-miterlimit:4;" d="M 241.640606 356.057492 C 241.640606 356.057492 227.140329 349.848202 215.639033 399.318683 C 215.868121 399.77863 205.970446 427.861556 210.109663 449.259564 C 210.109663 449.719511 241.640606 460.528276 260.509188 451.329327 L 275.238553 412.207664 C 275.238553 412.207664 302.161688 412.437637 306.998585 408.988032 C 306.998585 409.218005 321.259359 401.848393 331.162241 402.768288 C 331.620419 402.538314 337.597552 403.688183 335.301458 390.119734 C 335.07237 390.119734 329.782502 361.582088 319.421443 377.00078 C 320.108709 377.230753 294.112343 382.290175 288.130002 378.610596 C 288.359091 379.070543 288.130002 376.540832 288.130002 376.540832 C 288.130002 376.540832 272.708164 377.690701 264.190228 368.261779 Z M 241.640606 356.057492 " transform="matrix(0.750255,0,0,0.747368,-143.503031,-193.254429)"/>
<path style=" stroke:none;fill-rule:nonzero;fill:rgb(86.27451%,81.568627%,76.078431%);fill-opacity:1;" d="M 105.980469 91.417969 C 105.980469 91.417969 107.824219 85.4375 111.628906 83.570312 C 111.628906 83.570312 120.835938 74.402344 119.6875 83.570312 C 119.6875 83.570312 112.085938 89.191406 121.636719 87.585938 C 121.757812 87.703125 140.289062 81.851562 131.765625 89.992188 C 131.539062 90.109375 125.207031 93.09375 125.207031 93.09375 C 125.207031 93.09375 147.296875 89.304688 134.007812 96.753906 C 133.957031 96.875 126.132812 96.753906 126.132812 96.753906 C 126.132812 96.753906 143.386719 96.640625 130.851562 101.238281 C 130.851562 101.007812 125.554688 101.238281 125.554688 101.238281 C 125.554688 101.238281 137.640625 102.039062 128.78125 105.25 C 129.125 105.25 117.953125 105.820312 115.769531 104.332031 C 115.882812 104.5625 110.820312 101.007812 110.820312 101.007812 L 108.457031 101.007812 C 108.457031 101.007812 107.703125 95.027344 105.980469 91.425781 "/>
<path style="fill:none;stroke-width:1;stroke-linecap:butt;stroke-linejoin:round;stroke:rgb(13.72549%,12.156863%,12.54902%);stroke-opacity:1;stroke-miterlimit:4;" d="M 332.531567 380.899879 C 332.531567 380.899879 334.989065 372.89784 340.060257 370.399489 C 340.060257 370.399489 352.332124 358.132482 350.801395 370.399489 C 350.801395 370.399489 340.669424 377.920674 353.39947 375.772511 C 353.560873 375.929311 378.260806 368.099752 366.900086 378.992143 C 366.598106 379.148943 358.158268 383.142123 358.158268 383.142123 C 358.158268 383.142123 387.601379 378.072248 369.888653 388.039518 C 369.820968 388.201544 359.392223 388.039518 359.392223 388.039518 C 359.392223 388.039518 382.38961 387.887944 365.681751 394.039741 C 365.681751 393.731367 358.621652 394.039741 358.621652 394.039741 C 358.621652 394.039741 374.730756 395.111209 362.922272 399.407536 C 363.38045 399.407536 348.489681 400.170631 345.579213 398.179267 C 345.730203 398.487641 338.982498 393.731367 338.982498 393.731367 L 335.832528 393.731367 C 335.832528 393.731367 334.858901 385.70842 332.531567 380.899879 Z M 332.531567 380.899879 " transform="matrix(0.750255,0,0,0.747368,-143.503031,-193.254429)"/>
<path style=" stroke:none;fill-rule:nonzero;fill:rgb(13.72549%,12.156863%,12.54902%);fill-opacity:1;" d="M 76.050781 48.847656 C 76.050781 50.066406 75.0625 51.050781 73.839844 51.050781 C 72.617188 51.050781 71.625 50.066406 71.625 48.847656 C 71.625 47.628906 72.617188 46.644531 73.839844 46.644531 C 75.0625 46.644531 76.050781 47.628906 76.050781 48.847656 "/>
<path style="fill:none;stroke-width:1;stroke-linecap:butt;stroke-linejoin:round;stroke:rgb(13.72549%,12.156863%,12.54902%);stroke-opacity:1;stroke-miterlimit:4;" d="M 292.638885 323.939573 C 292.638885 325.570296 291.321625 326.887418 289.691971 326.887418 C 288.062317 326.887418 286.73985 325.570296 286.73985 323.939573 C 286.73985 322.30885 288.062317 320.991728 289.691971 320.991728 C 291.321625 320.991728 292.638885 322.30885 292.638885 323.939573 Z M 292.638885 323.939573 " transform="matrix(0.750255,0,0,0.747368,-143.503031,-193.254429)"/>
<path style=" stroke:none;fill-rule:nonzero;fill:rgb(13.72549%,12.156863%,12.54902%);fill-opacity:1;" d="M 59.386719 48.847656 C 59.386719 50.066406 58.398438 51.050781 57.175781 51.050781 C 55.953125 51.050781 54.960938 50.066406 54.960938 48.847656 C 54.960938 47.628906 55.953125 46.644531 57.175781 46.644531 C 58.398438 46.644531 59.386719 47.628906 59.386719 48.847656 "/>
<path style="fill:none;stroke-width:1;stroke-linecap:butt;stroke-linejoin:round;stroke:rgb(13.72549%,12.156863%,12.54902%);stroke-opacity:1;stroke-miterlimit:4;" d="M 270.42769 323.939573 C 270.42769 325.570296 269.110429 326.887418 267.480775 326.887418 C 265.851121 326.887418 264.528654 325.570296 264.528654 323.939573 C 264.528654 322.30885 265.851121 320.991728 267.480775 320.991728 C 269.110429 320.991728 270.42769 322.30885 270.42769 323.939573 Z M 270.42769 323.939573 " transform="matrix(0.750255,0,0,0.747368,-143.503031,-193.254429)"/>
<path style=" stroke:none;fill-rule:nonzero;fill:rgb(100%,100%,100%);fill-opacity:1;" d="M 59.304688 49.339844 C 59.304688 50.007812 58.902344 50.535156 58.390625 50.535156 C 57.851562 50.386719 57.476562 49.898438 57.476562 49.339844 C 57.476562 48.785156 57.851562 48.292969 58.390625 48.144531 C 58.902344 48.144531 59.304688 48.675781 59.304688 49.339844 "/>
<path style=" stroke:none;fill-rule:nonzero;fill:rgb(100%,100%,100%);fill-opacity:1;" d="M 76.050781 49.339844 C 76.050781 50.007812 75.644531 50.535156 75.136719 50.535156 C 74.597656 50.386719 74.222656 49.898438 74.222656 49.339844 C 74.222656 48.785156 74.597656 48.292969 75.136719 48.144531 C 75.644531 48.144531 76.050781 48.675781 76.050781 49.339844 "/>
</g>
</svg>
