<svg id="Layer_1" data-name="Layer 1" xmlns="http://www.w3.org/2000/svg" xmlns:xlink="http://www.w3.org/1999/xlink" viewBox="0 0 228.76 323.43"><defs><style>.cls-1,.cls-4,.cls-6{fill:none;}.cls-2{clip-path:url(#clip-path);}.cls-3{fill:url(#linear-gradient);}.cls-4,.cls-6{stroke:#231f20;}.cls-4{stroke-miterlimit:10;}.cls-5{fill:#646c03;}.cls-6{stroke-linejoin:round;}.cls-7{fill:#231f20;}.cls-8{fill:#dcd0c2;}.cls-9{fill:#5b2a0d;}.cls-10{fill:#fff;}</style><clipPath id="clip-path" transform="translate(-191.36 -234.58)"><rect class="cls-1" x="191.86" y="235.08" width="227.76" height="277.31"/></clipPath><linearGradient id="linear-gradient" x1="-112.63" y1="693.55" x2="-111.63" y2="693.55" gradientTransform="matrix(0, 277.31, 277.31, 0, -192211.64, 31233.97)" gradientUnits="userSpaceOnUse"><stop offset="0" stop-color="#bfe7fb"/><stop offset="0.26" stop-color="#bfe7fb"/><stop offset="0.74" stop-color="#cbe7d0"/><stop offset="1" stop-color="#daf1fd"/><stop offset="1" stop-color="#d7f0fc"/></linearGradient></defs><title>rain2</title><g class="cls-2"><rect class="cls-3" x="0.5" y="0.5" width="227.76" height="277.31"/></g><rect class="cls-4" x="0.5" y="0.5" width="227.76" height="277.31"/><path class="cls-5" d="M278,331.72s-13.34.92-8.1,13.25c0-.15-24.36,5.4-36.85,18.66,0,.16-27.45,14-9.41,34.39.16.31,24.11,32.84,24.11,32.84s-8.07,45.64-4.68,51.81c.16.31.31,27.6-5.55,28.22H365.65l-9.41-11.1s-1.54-27.6-3.24-36.24c.16.15,29.76-25.9,29.92-39.47,0,0,5.7-8.33-2.47-31.15.15.31-17.42-43.49-35.31-45-.15,0,1.63-7.17-4.78-8.63-.31.15-7.31-.65-7.31-.65s-7.88,6-10,7.17c0,0-9.81,9.49-25.71-.2l-7.15-3.27s-9.54-4.77-12.2-10.6" transform="translate(-191.36 -234.58)"/><path class="cls-6" d="M278,331.72s-13.34.92-8.1,13.25c0-.15-24.36,5.4-36.85,18.66,0,.16-27.45,14-9.41,34.39.16.31,24.11,32.84,24.11,32.84s-8.07,45.64-4.68,51.81c.16.31.31,27.6-5.55,28.22H365.65l-9.41-11.1s-1.54-27.6-3.24-36.24c.16.15,29.76-25.9,29.92-39.47,0,0,5.7-8.33-2.47-31.15.15.31-17.42-43.49-35.31-45-.15,0,1.63-7.17-4.78-8.63-.31.15-7.31-.65-7.31-.65s-7.88,6-10,7.17c0,0-9.81,9.49-25.71-.2l-7.15-3.27S280.65,337.55,278,331.72Z" transform="translate(-191.36 -234.58)"/><path class="cls-7" d="M275.75,313.83s-.31-10.95,4.32-12.49c-.16,0,8.48-.77,11.25-2.78.31-.15-2.77,11.72,23.13,1.08,0,0,.93,15.11,19.28-.15.15-.16,6-6.94,6-6.94s6.94,7.55,6.32,23.44c.16.3,14.34-5.25,12-17.58.16.15-.31-17.12-9.1-25.91,0-.31-4.31-3.85-4.78-9.25.16,0-9.4-11.1-22-6,.16.15-16.19-20.36-40.55,8.94,0,0-35.31,12.49-5.86,47.65" transform="translate(-191.36 -234.58)"/><path class="cls-4" d="M275.75,313.83s-.31-10.95,4.32-12.49c-.16,0,8.48-.77,11.25-2.78.31-.15-2.77,11.72,23.13,1.08,0,0,.93,15.11,19.28-.15.15-.16,6-6.94,6-6.94s6.94,7.55,6.32,23.44c.16.3,14.34-5.25,12-17.58.16.15-.31-17.12-9.1-25.91,0-.31-4.31-3.85-4.78-9.25.16,0-9.4-11.1-22-6,.16.15-16.19-20.36-40.55,8.94C281.61,266.18,246.3,278.67,275.75,313.83Z" transform="translate(-191.36 -234.58)"/><path class="cls-8" d="M275.75,313.83s-.26-11.85,4.32-12.49c0,0,8.48-.62,11.25-2.78,0,0-1.85,11.41,23.13,1.08,0,0,.78,15.42,19.28-.15l6-6.94A33.93,33.93,0,0,1,346.06,316s-.3,17.57-25.13,31c.15,0-12,7.25-23.59-1.39.15,0-19.69-6.4-22.36-21.28,0,.16-2.62-9.4.77-10.48" transform="translate(-191.36 -234.58)"/><path class="cls-6" d="M275.75,313.83s-.26-11.85,4.32-12.49c0,0,8.48-.62,11.25-2.78,0,0-1.85,11.41,23.13,1.08,0,0,.78,15.42,19.28-.15l6-6.94A33.93,33.93,0,0,1,346.06,316s-.3,17.57-25.13,31c.15,0-12,7.25-23.59-1.39.15,0-19.69-6.4-22.36-21.28C275,324.47,272.36,314.91,275.75,313.83Z" transform="translate(-191.36 -234.58)"/><path class="cls-8" d="M346.06,316a15,15,0,0,0,6.83-4c.17-.15,4.46,12.55-4.05,15.52-.15,0-7,.57-7,.57s4.07-6.46,4.19-12.14" transform="translate(-191.36 -234.58)"/><path class="cls-6" d="M346.06,316a15,15,0,0,0,6.83-4c.17-.15,4.46,12.55-4.05,15.52-.15,0-7,.57-7,.57S345.94,321.66,346.06,316Z" transform="translate(-191.36 -234.58)"/><path class="cls-8" d="M268.66,303.78s6.17,9.12,7.09,10.05c0,0-3.55.46-.77,10.48,0,0-8.48,5.81-12.49-12.28-.15.1-1.38-8.89,6.17-8.25" transform="translate(-191.36 -234.58)"/><path class="cls-6" d="M268.66,303.78s6.17,9.12,7.09,10.05c0,0-3.55.46-.77,10.48,0,0-8.48,5.81-12.49-12.28C262.34,312.13,261.11,303.14,268.66,303.78Z" transform="translate(-191.36 -234.58)"/><path class="cls-4" d="M301.66,332.48s4.93,15.42,22.2,2.16" transform="translate(-191.36 -234.58)"/><path class="cls-4" d="M307.36,322.62s4.32,7.63,11.87,2.58" transform="translate(-191.36 -234.58)"/><path class="cls-8" d="M290.19,342.32s-.87,5.88-5.34,7.5c0,.24,17.73,25.22,40.86,5.79.15.16-2.66-9.82-2.66-9.82s-11.83,9.67-25.71-.2Z" transform="translate(-191.36 -234.58)"/><path class="cls-6" d="M290.19,342.32s-.87,5.88-5.34,7.5c0,.24,17.73,25.22,40.86,5.79.15.16-2.66-9.82-2.66-9.82s-11.83,9.67-25.71-.2Z" transform="translate(-191.36 -234.58)"/><path class="cls-9" d="M293.85,358.45l8.58,65.63s19.43-23,19.27-57.06c.16-.15-3.95-1.18-1-7.84,0,0-12,8.9-26.88-.73" transform="translate(-191.36 -234.58)"/><path class="cls-6" d="M293.85,358.45l8.58,65.63s19.43-23,19.27-57.06c.16-.15-3.95-1.18-1-7.84C320.73,359.18,308.71,368.08,293.85,358.45Z" transform="translate(-191.36 -234.58)"/><path class="cls-4" d="M247.74,430.86s9.79,12.18,14.59,0c.16.46,12.65-15.11,12.65-15.11s6.94-1.85-3.08-11.72c0,.16-9.1-15.88-17.43-17.11.16,0,16.68-22.51-1-36.55" transform="translate(-191.36 -234.58)"/><path class="cls-4" d="M233.64,363s20.93,2.45,23.42,19.81" transform="translate(-191.36 -234.58)"/><path class="cls-4" d="M353,463.55l-4,5.71s-.61,12.33-13.57,4.78l-13.71-9.87s-2.94-12.95,4.31-16.66l14.65-13.1S342.36,423,351.46,423c0,0,.56-33.46-5.2-42.87,0,0,4.77-14.11,19.56-14.92" transform="translate(-191.36 -234.58)"/><path class="cls-4" d="M349.45,390.49s17-11.42,28.84-2.56" transform="translate(-191.36 -234.58)"/><path class="cls-6" d="M247.74,468h40.5s6.17,16.19,0,18.66l-35.93-.92S243.94,489.92,247.74,468Z" transform="translate(-191.36 -234.58)"/><path class="cls-4" d="M250.77,486.07s-6.94,22.35,6.17,21.43c0-.31,26.37,1.23,26.37,1.23s7.24,4.78,4.93-22.05" transform="translate(-191.36 -234.58)"/><path class="cls-4" d="M313.07,485.29h33.3s.47,11.13,3.09,12.27c.15-.09,3.85,9.32-7.56,7.78l-28.83,1.39Z" transform="translate(-191.36 -234.58)"/><path class="cls-6" d="M313.07,485.29v-8.8h35.48s-.48,4.05,1.6,4.75c-.23-.2,1.93,4.05-3.78,4.05" transform="translate(-191.36 -234.58)"/><path class="cls-4" d="M281.8,336.25s-.48,10.42,5.76,11.73" transform="translate(-191.36 -234.58)"/><path class="cls-4" d="M277.32,335.26s-8.05,8.47,7.53,14.56" transform="translate(-191.36 -234.58)"/><path class="cls-4" d="M337.59,339.1s6.31,6.63,3.69,10.72" transform="translate(-191.36 -234.58)"/><line class="cls-4" x1="153.78" y1="113.32" x2="134.35" y2="121.03"/><path class="cls-4" d="M269.89,345s9.41,2.78,12.8,6.79c0,0,4.87,10.78,11.92,12.48" transform="translate(-191.36 -234.58)"/><path class="cls-4" d="M321.12,366.61l14-15.16c8.63-10.33-6.76-9.33-6.76-9.33" transform="translate(-191.36 -234.58)"/><path class="cls-6" d="M289.24,361.09s2.24,50.65,7.17,56.36c.16.15,6.48,22.2,1.39,36.69,0,.16,4.32,53.2-.62,56.75h10.6s-1.65-32.54-4-38.4c.31.16,0-16.34,0-16.34s5.86-20,2.63-29.91c.15,0,26.06-31.76,19.27-65.15" transform="translate(-191.36 -234.58)"/><path class="cls-8" d="M262.33,430.86,275,415.75s6.17-6.63,18.2,1.54c-.16-.15,16,9.25,6.7,10.49-.07,0-7.09-4.32-7.09-4.32s24.9,14.22,7.56,12.82c-.08,0-7.87-5-7.87-5s12.49,8,.39,10c0,.15-4.4-3.16-4.4-3.16s10.49,7.32-1.85,6.94c-.23-.08-4.08-4.17-4.08-4.17s6.47,7.28-3.55,4.18c.08.06-6.17-1.55-9.48-5.49.15.08-2.57.7-7.18-8.71" transform="translate(-191.36 -234.58)"/><path class="cls-6" d="M262.33,430.86,275,415.75s6.17-6.63,18.2,1.54c-.16-.15,16,9.25,6.7,10.49-.07,0-7.09-4.32-7.09-4.32s24.9,14.22,7.56,12.82c-.08,0-7.87-5-7.87-5s12.49,8,.39,10c0,.15-4.4-3.16-4.4-3.16s10.49,7.32-1.85,6.94c-.23-.08-4.08-4.17-4.08-4.17s6.47,7.28-3.55,4.18c.08.06-6.17-1.55-9.48-5.49C269.66,439.65,266.94,440.27,262.33,430.86Z" transform="translate(-191.36 -234.58)"/><path class="cls-8" d="M321.71,464.17s-1.94-3.16-8.64,0c-.08.07-7.11-.69-9.19-3.7,0-.31-7.78,2.62.71,9.63,0,0,14.41,7.41.92,8.33,0,0-6.71-.15-10.72-7.48.08.08-7.81,3.41,4.62,12.34,0-.16,5,3.93,10.8,4.55,0,.07,4.17-1.77,4.17-1.77s-10.18,3.69,2.31,4.39c.16-.16,3.77-.76,4.43-4.39.12,0-3.89,5.7,1,3.85,0-.08,8,.48,12.33-16.61l-12.71-9.14" transform="translate(-191.36 -234.58)"/><path class="cls-6" d="M321.71,464.17s-1.94-3.16-8.64,0c-.08.07-7.11-.69-9.19-3.7,0-.31-7.78,2.62.71,9.63,0,0,14.41,7.41.92,8.33,0,0-6.71-.15-10.72-7.48.08.08-7.81,3.41,4.62,12.34,0-.16,5,3.93,10.8,4.55,0,.07,4.17-1.77,4.17-1.77s-10.18,3.69,2.31,4.39c.16-.16,3.77-.76,4.43-4.39.12,0-3.89,5.7,1,3.85,0-.08,8,.48,12.33-16.61Z" transform="translate(-191.36 -234.58)"/><path class="cls-7" d="M299.25,313c0,2.27-1.13,4.11-2.52,4.11s-2.53-1.84-2.53-4.11,1.13-4.12,2.53-4.12,2.52,1.84,2.52,4.12" transform="translate(-191.36 -234.58)"/><path class="cls-6" d="M299.25,313c0,2.27-1.13,4.11-2.52,4.11s-2.53-1.84-2.53-4.11,1.13-4.12,2.53-4.12S299.25,310.76,299.25,313Z" transform="translate(-191.36 -234.58)"/><path class="cls-7" d="M326.38,313c0,2.27-1.13,4.11-2.52,4.11s-2.52-1.84-2.52-4.11,1.13-4.12,2.52-4.12,2.52,1.84,2.52,4.12" transform="translate(-191.36 -234.58)"/><path class="cls-6" d="M326.38,313c0,2.27-1.13,4.11-2.52,4.11s-2.52-1.84-2.52-4.11,1.13-4.12,2.52-4.12S326.38,310.76,326.38,313Z" transform="translate(-191.36 -234.58)"/><path class="cls-10" d="M298.24,316a1.11,1.11,0,1,1-1.07-1.41,1.27,1.27,0,0,1,1.07,1.41" transform="translate(-191.36 -234.58)"/><path class="cls-10" d="M324.35,315.91a1.11,1.11,0,1,1-1.07-1.41,1.27,1.27,0,0,1,1.07,1.41" transform="translate(-191.36 -234.58)"/><polyline class="cls-1" points="88.44 323.43 110.87 263.54 218.93 304"/><polyline class="cls-1" points="88.44 323.43 110.87 263.54 218.93 304"/></svg>