<svg id="Layer_1" data-name="Layer 1" xmlns="http://www.w3.org/2000/svg" xmlns:xlink="http://www.w3.org/1999/xlink" viewBox="0 0 228.76 278.31"><defs><style>.cls-1,.cls-4,.cls-6{fill:none;}.cls-2{clip-path:url(#clip-path);}.cls-3{fill:url(#linear-gradient);}.cls-4,.cls-6{stroke:#231f20;}.cls-4{stroke-miterlimit:10;}.cls-5{fill:#231f20;}.cls-6{stroke-linejoin:round;}.cls-7{fill:#dcd0c2;}.cls-8{fill:#c9cacc;}.cls-9{fill:#2c185a;}.cls-10{fill:#2d435f;}.cls-11{fill:#08202d;}.cls-12{fill:#5b2a0d;}.cls-13{fill:#fff;}</style><clipPath id="clip-path" transform="translate(-191.52 -258.58)"><rect class="cls-1" x="192.02" y="259.08" width="227.76" height="277.31"/></clipPath><linearGradient id="linear-gradient" x1="-112.54" y1="694.49" x2="-111.54" y2="694.49" gradientTransform="matrix(0, 277.31, 277.31, 0, -192471.64, 31209.97)" gradientUnits="userSpaceOnUse"><stop offset="0" stop-color="#bfe7fb"/><stop offset="0.26" stop-color="#bfe7fb"/><stop offset="0.74" stop-color="#cbe7d0"/><stop offset="1" stop-color="#daf1fd"/><stop offset="1" stop-color="#d7f0fc"/></linearGradient></defs><title>rain1</title><g class="cls-2"><rect class="cls-3" x="0.5" y="0.5" width="227.76" height="277.31"/></g><rect class="cls-4" x="0.5" y="0.5" width="227.76" height="277.31"/><path class="cls-5" d="M232.44,323.61s12.65-4.83,12.42,4.6c0-.23,7.83,4.29,6-2.92,0-.07-1.85-12,6.67-11.8-.23,0,13.58-1.39,26.92-15.42.23,0-3.45,10.35-10.58,14.26,0,.23,16.8,9.21,24.85-12.65,0,0,4.83,7.13-1.61,16.34.23.23,12.89,2.3,12.66-9.44-.23,0,3-12.43-8.52-14.27-.23,0-27.84-35.2-61.67-6.9-.23.23-20,17-7.13,38.2" transform="translate(-191.52 -258.58)"/><path class="cls-6" d="M232.44,323.61s12.65-4.83,12.42,4.6c0-.23,7.83,4.29,6-2.92,0-.07-1.85-12,6.67-11.8-.23,0,13.58-1.39,26.92-15.42.23,0-3.45,10.35-10.58,14.26,0,.23,16.8,9.21,24.85-12.65,0,0,4.83,7.13-1.61,16.34.23.23,12.89,2.3,12.66-9.44-.23,0,3-12.43-8.52-14.27-.23,0-27.84-35.2-61.67-6.9C239.34,285.64,219.55,302.44,232.44,323.61Z" transform="translate(-191.52 -258.58)"/><path class="cls-7" d="M232.44,323.61s12.19-5.52,12.42,4.6c0,0,7.83,4.06,6-2.92,0,0-2.31-11.57,6.67-11.8,0,0,13.58-.93,26.92-15.42,0,0-2.07,9.43-10.58,14.26,0,0,17.26,9.21,24.85-12.65A14.36,14.36,0,0,1,297.1,316a9.06,9.06,0,0,0,6.45-.22c-.06,0-2.07,12.18,0,16.56,0-.23,2.3,21.4-20,28.76.23.23-23,9.9-41.88-19.56-.23.23-17,7.13-9.2-17.95" transform="translate(-191.52 -258.58)"/><path class="cls-6" d="M232.44,323.61s12.19-5.52,12.42,4.6c0,0,7.83,4.06,6-2.92,0,0-2.31-11.57,6.67-11.8,0,0,13.58-.93,26.92-15.42,0,0-2.07,9.43-10.58,14.26,0,0,17.26,9.21,24.85-12.65A14.36,14.36,0,0,1,297.1,316a9.06,9.06,0,0,0,6.45-.22c-.06,0-2.07,12.18,0,16.56,0-.23,2.3,21.4-20,28.76.23.23-23,9.9-41.88-19.56C241.41,341.79,224.61,348.69,232.44,323.61Z" transform="translate(-191.52 -258.58)"/><path class="cls-6" d="M235.66,326.83s8.05-1.15,6.67,9" transform="translate(-191.52 -258.58)"/><path class="cls-6" d="M271.1,345s10.12,17,19.1,0" transform="translate(-191.52 -258.58)"/><path class="cls-6" d="M278.92,337s6.9-5.76,11.28,0" transform="translate(-191.52 -258.58)"/><path class="cls-7" d="M241.64,341.56v14.5l22.55,12.19,2.8-6.33s-14.53-2.64-25.35-20.36" transform="translate(-191.52 -258.58)"/><path class="cls-6" d="M241.64,341.56v14.5l22.55,12.19,2.8-6.33S252.46,359.28,241.64,341.56Z" transform="translate(-191.52 -258.58)"/><path class="cls-6" d="M247.85,305.89s11.48,5.52,24.61-5.06" transform="translate(-191.52 -258.58)"/><path class="cls-6" d="M247.85,296.46s9.27,7.59,19.14,1.61" transform="translate(-191.52 -258.58)"/><path class="cls-8" d="M212.28,450.12s-2.86,14.56,11.41,15.94c.23,0,27.85-9.21,27.85-9.21l9-5.52s-11.78,9.1-48.23-1.21" transform="translate(-191.52 -258.58)"/><path class="cls-6" d="M212.28,450.12s-2.86,14.56,11.41,15.94c.23,0,27.85-9.21,27.85-9.21l9-5.52S248.73,460.43,212.28,450.12Z" transform="translate(-191.52 -258.58)"/><path class="cls-8" d="M334.84,466.06s-11.35,14.65,3.07,21.09c-.16-.15,47.87-1.53,47.87-1.53l-11.51-20.87Z" transform="translate(-191.52 -258.58)"/><path class="cls-6" d="M334.84,466.06s-11.35,14.65,3.07,21.09c-.16-.15,47.87-1.53,47.87-1.53l-11.51-20.87Z" transform="translate(-191.52 -258.58)"/><path class="cls-9" d="M303.61,456.85s19.72-15.52,23.1-29c.15-.1-1.08,15.7,4,18.16-.16-.16-.31,8.62-1.08,9,.16.21-5.21,10.34,5.22,11,.61-.08,39.43-1.31,39.43-1.31l-16-60S329,378.88,316,405.42c.15,0-12.34,51.43-12.34,51.43" transform="translate(-191.52 -258.58)"/><path class="cls-6" d="M303.61,456.85s19.72-15.52,23.1-29c.15-.1-1.08,15.7,4,18.16-.16-.16-.31,8.62-1.08,9,.16.21-5.21,10.34,5.22,11,.61-.08,39.43-1.31,39.43-1.31l-16-60S329,378.88,316,405.42C316.1,405.42,303.61,456.85,303.61,456.85Z" transform="translate(-191.52 -258.58)"/><path class="cls-10" d="M393,449.43c-.47,3.56-10.25,5.2-21.83,3.66s-20.59-5.68-20.11-9.24,10.24-5.2,21.83-3.66,20.58,5.68,20.11,9.24" transform="translate(-191.52 -258.58)"/><ellipse class="cls-6" cx="371.99" cy="446.64" rx="6.5" ry="21.16" transform="translate(-311.3 497.93) rotate(-82.43)"/><path class="cls-11" d="M389.61,459.23s-1.06-5.52,3.23-2.92c0-.3,6.13,5.07,6.13,5.07L393.6,464Z" transform="translate(-191.52 -258.58)"/><path class="cls-6" d="M389.61,459.23s-1.06-5.52,3.23-2.92c0-.3,6.13,5.07,6.13,5.07L393.6,464Z" transform="translate(-191.52 -258.58)"/><path class="cls-11" d="M351.42,445.48s-2.31,8.69.91,22c0,.16,3.68,7.83-3.53,21.48.15-.15-7.93,16.26,23.19,21,0,0,46.46,11.81,39.1-8.59-.16.15.61-3.68-12.58-14.58-.16.16-9.21-3.37-7.67-23.78,0-.3,1.9-12.94,1.9-12.94s-2.19,5-21.61,3c0,0-16-2.18-19.71-7.61" transform="translate(-191.52 -258.58)"/><path class="cls-6" d="M351.42,445.48s-2.31,8.69.91,22c0,.16,3.68,7.83-3.53,21.48.15-.15-7.93,16.26,23.19,21,0,0,46.46,11.81,39.1-8.59-.16.15.61-3.68-12.58-14.58-.16.16-9.21-3.37-7.67-23.78,0-.3,1.9-12.94,1.9-12.94s-2.19,5-21.61,3C371.13,453.09,355.12,450.91,351.42,445.48Z" transform="translate(-191.52 -258.58)"/><path class="cls-6" d="M392.15,454.05s-9.29-.19-7.91,6.41c-.15-.16-.31,20.71,1.53,23,0,0-1.07,10.74,8.44,11.2,0,0,7.79,1.23,7.35-5.22l-3.05-2.61S386.86,483.69,392.15,454.05Z" transform="translate(-191.52 -258.58)"/><path class="cls-5" d="M348,492.06s-9.75,16.42,22.47,23.78c0-.15,47.76,15,41.45-11.89-.11.07,6.31,16.88-40.58,5.95C372,510,347,507.56,348,492.06" transform="translate(-191.52 -258.58)"/><path class="cls-6" d="M348,492.06s-9.75,16.42,22.47,23.78c0-.15,47.76,15,41.45-11.89-.11.07,6.31,16.88-40.58,5.95C372,510,347,507.56,348,492.06Z" transform="translate(-191.52 -258.58)"/><path class="cls-10" d="M337.91,361c3.58-.21,7,9.08,7.73,20.74s-1.68,21.29-5.26,21.5-7.05-9.08-7.73-20.74,1.67-21.29,5.26-21.5" transform="translate(-191.52 -258.58)"/><path class="cls-6" d="M337.91,361c3.58-.21,7,9.08,7.73,20.74s-1.68,21.29-5.26,21.5-7.05-9.08-7.73-20.74S334.32,361.23,337.91,361Z" transform="translate(-191.52 -258.58)"/><path class="cls-11" d="M348.16,362.45s-5.22,2.09-3.47-2.61c-.3.06,3.81-7,3.81-7l3.58,4.78Z" transform="translate(-191.52 -258.58)"/><path class="cls-6" d="M348.16,362.45s-5.22,2.09-3.47-2.61c-.3.06,3.81-7,3.81-7l3.58,4.78Z" transform="translate(-191.52 -258.58)"/><path class="cls-11" d="M341.9,402.55s9,.63,21.46-5.06c.15,0,7-5.1,21.76-.61-.18-.12,17.47,4.71,16.24-26.75,0,0,2.8-47.86-15.84-36.76.18.12-3.73.09-11.93,15.11.18.12-1.57,9.68-21.89,12-.3.06-13.07.59-13.07.59s5.28,1.21,7,20.65c0,0,.89,16.13-3.74,20.79" transform="translate(-191.52 -258.58)"/><path class="cls-6" d="M341.9,402.55s9,.63,21.46-5.06c.15,0,7-5.1,21.76-.61-.18-.12,17.47,4.71,16.24-26.75,0,0,2.8-47.86-15.84-36.76.18.12-3.73.09-11.93,15.11.18.12-1.57,9.68-21.89,12-.3.06-13.07.59-13.07.59s5.28,1.21,7,20.65C345.64,381.76,346.53,397.89,341.9,402.55Z" transform="translate(-191.52 -258.58)"/><path class="cls-6" d="M342.6,360.94s1.57,9.16,7.79,6.55c-.12.18,20.39-3.62,22.3-5.86,0,0,10.75-1,9.4-10.41,0,0-.27-7.88-6.51-6.23.17-.28-2,3.49-2,3.49S372.71,360.51,342.6,360.94Z" transform="translate(-191.52 -258.58)"/><path class="cls-5" d="M388.29,397.12s18,6.46,19.09-26.57c-.15,0,5.71-49.74-19.53-38.44.09.1,15.39-9.39,13.54,38.72,0-.7,2.3,24.33-13.1,26.29" transform="translate(-191.52 -258.58)"/><path class="cls-6" d="M388.29,397.12s18,6.46,19.09-26.57c-.15,0,5.71-49.74-19.53-38.44.09.1,15.39-9.39,13.54,38.72C401.36,370.13,403.69,395.16,388.29,397.12Z" transform="translate(-191.52 -258.58)"/><path class="cls-9" d="M223.69,466.06s-.08,28.76,42.27,26.46c0,.16,34.36-2.57,41.42-37.49.31-.1,6.44-34.77,6.44-34.77s22.86-14.72,26.39-13.34c0-.31,5.06.75,3.38-7.38-.16.17-7.76-32.82-7.76-32.82s-4.37-8.13-14.49,0c.15.15-31.14,12.68-31.14,12.68l-15,32.81-14.73,39.12-9,5.52Z" transform="translate(-191.52 -258.58)"/><path class="cls-6" d="M223.69,466.06s-.08,28.76,42.27,26.46c0,.16,34.36-2.57,41.42-37.49.31-.1,6.44-34.77,6.44-34.77s22.86-14.72,26.39-13.34c0-.31,5.06.75,3.38-7.38-.16.17-7.76-32.82-7.76-32.82s-4.37-8.13-14.49,0c.15.15-31.14,12.68-31.14,12.68l-15,32.81-14.73,39.12-9,5.52Z" transform="translate(-191.52 -258.58)"/><path class="cls-12" d="M241.64,356.06s-14.5-6.21-26,43.26c.23.46-9.67,28.54-5.53,49.94,0,.46,31.53,11.27,50.4,2.07l14.73-39.12s26.92.23,31.76-3.22c0,.23,14.26-7.14,24.16-6.22.46-.23,6.44.92,4.14-12.65-.23,0-5.52-28.54-15.88-13.12.69.23-25.31,5.29-31.29,1.61.23.46,0-2.07,0-2.07s-15.42,1.15-23.94-8.28Z" transform="translate(-191.52 -258.58)"/><path class="cls-6" d="M241.64,356.06s-14.5-6.21-26,43.26c.23.46-9.67,28.54-5.53,49.94,0,.46,31.53,11.27,50.4,2.07l14.73-39.12s26.92.23,31.76-3.22c0,.23,14.26-7.14,24.16-6.22.46-.23,6.44.92,4.14-12.65-.23,0-5.52-28.54-15.88-13.12.69.23-25.31,5.29-31.29,1.61.23.46,0-2.07,0-2.07s-15.42,1.15-23.94-8.28Z" transform="translate(-191.52 -258.58)"/><path class="cls-7" d="M332.53,380.9s2.46-8,7.53-10.5c0,0,12.27-12.27,10.74,0,0,0-10.13,7.52,2.6,5.37.16.16,24.86-7.67,13.5,3.22-.3.16-8.74,4.15-8.74,4.15s29.44-5.07,11.73,4.9c-.07.16-10.5,0-10.5,0s23-.15,6.29,6c0-.31-7.06,0-7.06,0s16.11,1.07,4.3,5.37c.46,0-14.43.76-17.34-1.23.15.31-6.6-4.45-6.6-4.45h-3.15s-1-8-3.3-12.82" transform="translate(-191.52 -258.58)"/><path class="cls-6" d="M332.53,380.9s2.46-8,7.53-10.5c0,0,12.27-12.27,10.74,0,0,0-10.13,7.52,2.6,5.37.16.16,24.86-7.67,13.5,3.22-.3.16-8.74,4.15-8.74,4.15s29.44-5.07,11.73,4.9c-.07.16-10.5,0-10.5,0s23-.15,6.29,6c0-.31-7.06,0-7.06,0s16.11,1.07,4.3,5.37c.46,0-14.43.76-17.34-1.23.15.31-6.6-4.45-6.6-4.45h-3.15S334.86,385.71,332.53,380.9Z" transform="translate(-191.52 -258.58)"/><path class="cls-5" d="M292.64,323.94a2.95,2.95,0,1,1-2.95-2.95,2.95,2.95,0,0,1,2.95,2.95" transform="translate(-191.52 -258.58)"/><path class="cls-6" d="M292.64,323.94a2.95,2.95,0,1,1-2.95-2.95A2.95,2.95,0,0,1,292.64,323.94Z" transform="translate(-191.52 -258.58)"/><path class="cls-5" d="M270.43,323.94a2.95,2.95,0,1,1-2.95-2.95,2.95,2.95,0,0,1,2.95,2.95" transform="translate(-191.52 -258.58)"/><path class="cls-6" d="M270.43,323.94a2.95,2.95,0,1,1-2.95-2.95A2.95,2.95,0,0,1,270.43,323.94Z" transform="translate(-191.52 -258.58)"/><path class="cls-13" d="M270.32,324.6c0,.89-.54,1.6-1.22,1.6a1.66,1.66,0,0,1,0-3.2c.68,0,1.22.71,1.22,1.6" transform="translate(-191.52 -258.58)"/><path class="cls-13" d="M292.64,324.6c0,.89-.54,1.6-1.22,1.6a1.66,1.66,0,0,1,0-3.2c.68,0,1.22.71,1.22,1.6" transform="translate(-191.52 -258.58)"/></svg>